<svg width="33" height="24" viewBox="0 0 33 24" fill="none" xmlns="http://www.w3.org/2000/svg">
<path d="M13.7053 8.469C13.8012 8.39927 13.915 8.34396 14.0403 8.30622C14.1656 8.26848 14.2998 8.24905 14.4354 8.24905C14.571 8.24905 14.7053 8.26848 14.8306 8.30622C14.9558 8.34396 15.0697 8.39927 15.1656 8.469C15.2614 8.53873 15.3375 8.62152 15.3894 8.71263C15.4413 8.80374 15.468 8.90139 15.468 9C15.468 9.09862 15.4413 9.19627 15.3894 9.28738C15.3375 9.37849 15.2614 9.46127 15.1656 9.531L11.7686 12L15.1656 14.469C15.3592 14.6098 15.468 14.8008 15.468 15C15.468 15.1992 15.3592 15.3902 15.1656 15.531C14.9719 15.6718 14.7093 15.7509 14.4354 15.7509C14.1616 15.7509 13.8989 15.6718 13.7053 15.531L9.58031 12.531C9.48427 12.4613 9.40808 12.3786 9.35609 12.2875C9.3041 12.1963 9.27734 12.0987 9.27734 12C9.27734 11.9014 9.3041 11.8037 9.35609 11.7126C9.40808 11.6214 9.48427 11.5387 9.58031 11.469L13.7053 8.469ZM19.2905 8.469C19.1947 8.39927 19.0808 8.34396 18.9556 8.30622C18.8303 8.26848 18.696 8.24905 18.5604 8.24905C18.4248 8.24905 18.2906 8.26848 18.1653 8.30622C18.04 8.34396 17.9262 8.39927 17.8303 8.469C17.7344 8.53873 17.6584 8.62152 17.6065 8.71263C17.5546 8.80374 17.5279 8.90139 17.5279 9C17.5279 9.09862 17.5546 9.19627 17.6065 9.28738C17.6584 9.37849 17.7344 9.46127 17.8303 9.531L21.2272 12L17.8303 14.469C17.6367 14.6098 17.5279 14.8008 17.5279 15C17.5279 15.1992 17.6367 15.3902 17.8303 15.531C18.0239 15.6718 18.2866 15.7509 18.5604 15.7509C18.8343 15.7509 19.0969 15.6718 19.2905 15.531L23.4155 12.531C23.5116 12.4613 23.5878 12.3786 23.6398 12.2875C23.6917 12.1963 23.7185 12.0987 23.7185 12C23.7185 11.9014 23.6917 11.8037 23.6398 11.7126C23.5878 11.6214 23.5116 11.5387 23.4155 11.469L19.2905 8.469Z" fill="#347BE4"/>
<path d="M4.12512 3C4.12512 2.20435 4.55972 1.44129 5.33331 0.87868C6.10689 0.316071 7.1561 0 8.25012 0L24.7501 0C25.8441 0 26.8934 0.316071 27.6669 0.87868C28.4405 1.44129 28.8751 2.20435 28.8751 3V21C28.8751 21.7957 28.4405 22.5587 27.6669 23.1213C26.8934 23.6839 25.8441 24 24.7501 24H8.25012C7.1561 24 6.10689 23.6839 5.33331 23.1213C4.55972 22.5587 4.12512 21.7957 4.12512 21L4.12512 3ZM24.7501 1.5L8.25012 1.5C7.70311 1.5 7.17851 1.65804 6.79171 1.93934C6.40492 2.22064 6.18762 2.60218 6.18762 3L6.18762 21C6.18762 21.3978 6.40492 21.7794 6.79171 22.0607C7.17851 22.342 7.70311 22.5 8.25012 22.5H24.7501C25.2971 22.5 25.8217 22.342 26.2085 22.0607C26.5953 21.7794 26.8126 21.3978 26.8126 21V3C26.8126 2.60218 26.5953 2.22064 26.2085 1.93934C25.8217 1.65804 25.2971 1.5 24.7501 1.5Z" fill="#347BE4"/>
</svg>
