<svg width="21" height="21" viewBox="0 0 21 21" fill="none" xmlns="http://www.w3.org/2000/svg">
<path d="M7.875 0.364656C8.00312 0.520335 8.08161 0.710857 8.10032 0.911605C8.11904 1.11235 8.07713 1.3141 7.98 1.49078C7.22119 2.88397 6.82491 4.4456 6.82763 6.03203C6.82763 11.3096 11.13 15.5831 16.4325 15.5831C17.1242 15.5831 17.7975 15.5109 18.4446 15.3731C18.6429 15.3301 18.8495 15.3466 19.0386 15.4203C19.2277 15.4941 19.3908 15.6219 19.5077 15.7878C19.631 15.9604 19.6939 16.1688 19.6866 16.3808C19.6792 16.5928 19.602 16.7963 19.467 16.9599C18.4376 18.2244 17.139 19.2433 15.6658 19.9422C14.1926 20.641 12.582 21.0024 10.9515 20.9998C4.90087 20.9998 0 16.1252 0 10.1192C0 5.59891 2.77463 1.72178 6.72525 0.0785314C6.92204 -0.00463926 7.14051 -0.0217097 7.34783 0.0298845C7.55516 0.0814786 7.74014 0.198951 7.875 0.364656Z" fill="black"/>
<path d="M14.1671 4.13174C14.1859 4.0749 14.2222 4.02544 14.2707 3.99038C14.3193 3.95532 14.3776 3.93646 14.4375 3.93646C14.4974 3.93646 14.5557 3.95532 14.6043 3.99038C14.6528 4.02544 14.6891 4.0749 14.7079 4.13174L15.2158 5.65686C15.4429 6.33674 15.9757 6.86961 16.6556 7.09668L18.1807 7.60461C18.2376 7.62343 18.287 7.65969 18.3221 7.70823C18.3572 7.75676 18.376 7.81511 18.376 7.87499C18.376 7.93486 18.3572 7.99321 18.3221 8.04175C18.287 8.09029 18.2376 8.12654 18.1807 8.14536L16.6556 8.6533C16.3203 8.76502 16.0156 8.95329 15.7657 9.2032C15.5158 9.45312 15.3275 9.7578 15.2158 10.0931L14.7079 11.6182C14.6891 11.6751 14.6528 11.7245 14.6043 11.7596C14.5557 11.7947 14.4974 11.8135 14.4375 11.8135C14.3776 11.8135 14.3193 11.7947 14.2707 11.7596C14.2222 11.7245 14.1859 11.6751 14.1671 11.6182L13.6592 10.0931C13.5475 9.7578 13.3592 9.45312 13.1093 9.2032C12.8594 8.95329 12.5547 8.76502 12.2194 8.6533L10.6942 8.14536C10.6374 8.12654 10.5879 8.09029 10.5529 8.04175C10.5178 7.99321 10.499 7.93486 10.499 7.87499C10.499 7.81511 10.5178 7.75676 10.5529 7.70823C10.5879 7.65969 10.6374 7.62343 10.6942 7.60461L12.2194 7.09668C12.5547 6.98496 12.8594 6.79669 13.1093 6.54677C13.3592 6.29686 13.5475 5.99217 13.6592 5.65686L14.1671 4.13174ZM18.1952 0.129925C18.2081 0.0925536 18.2324 0.0601475 18.2646 0.0372124C18.2969 0.0142774 18.3354 0.00195312 18.375 0.00195312C18.4146 0.00195313 18.4531 0.0142774 18.4853 0.0372124C18.5176 0.0601475 18.5419 0.0925536 18.5548 0.129925L18.8934 1.1458C19.0444 1.59993 19.4001 1.95561 19.8542 2.10655L20.8701 2.44518C20.9074 2.45813 20.9398 2.48241 20.9628 2.51464C20.9857 2.54686 20.998 2.58543 20.998 2.62499C20.998 2.66454 20.9857 2.70311 20.9628 2.73534C20.9398 2.76756 20.9074 2.79184 20.8701 2.8048L19.8542 3.14343C19.6304 3.21787 19.427 3.34347 19.2603 3.51025C19.0935 3.67702 18.9679 3.88038 18.8934 4.10418L18.5548 5.12005C18.5419 5.15742 18.5176 5.18983 18.4853 5.21276C18.4531 5.2357 18.4146 5.24802 18.375 5.24802C18.3354 5.24802 18.2969 5.2357 18.2646 5.21276C18.2324 5.18983 18.2081 5.15742 18.1952 5.12005L17.8566 4.10418C17.7821 3.88038 17.6565 3.67702 17.4897 3.51025C17.323 3.34347 17.1196 3.21787 16.8958 3.14343L15.8799 2.8048C15.8426 2.79184 15.8102 2.76756 15.7872 2.73534C15.7643 2.70311 15.752 2.66454 15.752 2.62499C15.752 2.58543 15.7643 2.54686 15.7872 2.51464C15.8102 2.48241 15.8426 2.45813 15.8799 2.44518L16.8958 2.10655C17.3499 1.95561 17.7056 1.59993 17.8566 1.1458L18.1952 0.131238V0.129925Z" fill="black"/>
</svg>
