<svg width="24" height="25" viewBox="0 0 24 25" fill="none" xmlns="http://www.w3.org/2000/svg">
<path d="M12 4.45832C12.1768 4.45832 12.3464 4.38515 12.4714 4.25492C12.5964 4.12468 12.6667 3.94805 12.6667 3.76387V1.32637C12.6667 1.14219 12.5964 0.965559 12.4714 0.835326C12.3464 0.705092 12.1768 0.631927 12 0.631927C11.8232 0.631927 11.6536 0.705092 11.5286 0.835326C11.4036 0.965559 11.3333 1.14219 11.3333 1.32637V3.76387C11.3333 3.94805 11.4036 4.12468 11.5286 4.25492C11.6536 4.38515 11.8232 4.45832 12 4.45832Z" fill="black"/>
<path d="M12 20.5417C11.8232 20.5417 11.6536 20.6148 11.5286 20.7451C11.4036 20.8753 11.3333 21.0519 11.3333 21.2361V23.6736C11.3333 23.8578 11.4036 24.0344 11.5286 24.1646C11.6536 24.2949 11.8232 24.368 12 24.368C12.1768 24.368 12.3464 24.2949 12.4714 24.1646C12.5964 24.0344 12.6667 23.8578 12.6667 23.6736V21.2361C12.6667 21.0519 12.5964 20.8753 12.4714 20.7451C12.3464 20.6148 12.1768 20.5417 12 20.5417Z" fill="black"/>
<path d="M5.6 6.8125C5.72753 6.92626 5.89158 6.98571 6.05937 6.97896C6.22715 6.97221 6.38631 6.89976 6.50504 6.77608C6.62377 6.6524 6.69333 6.48661 6.69981 6.31184C6.70629 6.13706 6.64922 5.96618 6.54 5.83333L4.88667 4.11111C4.75913 3.99734 4.59508 3.93789 4.4273 3.94464C4.25951 3.95139 4.10035 4.02384 3.98162 4.14752C3.86289 4.2712 3.79334 4.43699 3.78686 4.61176C3.78038 4.78654 3.83745 4.95742 3.94667 5.09027L5.6 6.8125Z" fill="black"/>
<path d="M18.4 18.1875C18.2725 18.0737 18.1084 18.0143 17.9406 18.021C17.7728 18.0278 17.6137 18.1002 17.495 18.2239C17.3762 18.3476 17.3067 18.5134 17.3002 18.6881C17.2937 18.8629 17.3508 19.0338 17.46 19.1667L19.1133 20.8889C19.2409 21.0026 19.4049 21.0621 19.5727 21.0553C19.7405 21.0486 19.8996 20.9761 20.0184 20.8525C20.1371 20.7288 20.2067 20.563 20.2131 20.3882C20.2196 20.2134 20.1626 20.0426 20.0533 19.9097L18.4 18.1875Z" fill="black"/>
<path d="M4.27999 12.5C4.27999 12.3158 4.20975 12.1392 4.08473 12.0089C3.95971 11.8787 3.79014 11.8055 3.61333 11.8055H1.27333C1.09651 11.8055 0.926945 11.8787 0.801921 12.0089C0.676897 12.1392 0.606659 12.3158 0.606659 12.5C0.606659 12.6842 0.676897 12.8608 0.801921 12.991C0.926945 13.1213 1.09651 13.1944 1.27333 13.1944H3.61333C3.79014 13.1944 3.95971 13.1213 4.08473 12.991C4.20975 12.8608 4.27999 12.6842 4.27999 12.5Z" fill="black"/>
<path d="M22.7267 11.8055H20.3867C20.2099 11.8055 20.0403 11.8787 19.9153 12.0089C19.7902 12.1392 19.72 12.3158 19.72 12.5C19.72 12.6842 19.7902 12.8608 19.9153 12.991C20.0403 13.1213 20.2099 13.1944 20.3867 13.1944H22.7267C22.9035 13.1944 23.0731 13.1213 23.1981 12.991C23.3231 12.8608 23.3933 12.6842 23.3933 12.5C23.3933 12.3158 23.3231 12.1392 23.1981 12.0089C23.0731 11.8787 22.9035 11.8055 22.7267 11.8055Z" fill="black"/>
<path d="M5.6 18.1875L3.94667 19.9097C3.83745 20.0426 3.78038 20.2134 3.78686 20.3882C3.79334 20.563 3.86289 20.7288 3.98162 20.8525C4.10035 20.9761 4.25951 21.0486 4.4273 21.0553C4.59508 21.0621 4.75913 21.0026 4.88667 20.8889L6.54 19.1667C6.64922 19.0338 6.70629 18.8629 6.69981 18.6881C6.69333 18.5134 6.62377 18.3476 6.50504 18.2239C6.38631 18.1002 6.22715 18.0278 6.05937 18.021C5.89158 18.0143 5.72753 18.0737 5.6 18.1875Z" fill="black"/>
<path d="M18.4 6.8125L20.0533 5.09027C20.1626 4.95742 20.2196 4.78654 20.2131 4.61176C20.2067 4.43699 20.1371 4.2712 20.0184 4.14752C19.8996 4.02384 19.7405 3.95139 19.5727 3.94464C19.4049 3.93789 19.2409 3.99734 19.1133 4.11111L17.46 5.83333C17.3508 5.96618 17.2937 6.13706 17.3002 6.31184C17.3067 6.48661 17.3762 6.6524 17.495 6.77608C17.6137 6.89976 17.7728 6.97221 17.9406 6.97896C18.1084 6.98571 18.2725 6.92626 18.4 6.8125Z" fill="black"/>
<path d="M12 19.4444C15.6819 19.4444 18.6667 16.3353 18.6667 12.5C18.6667 8.66468 15.6819 5.55554 12 5.55554C8.3181 5.55554 5.33333 8.66468 5.33333 12.5C5.33333 16.3353 8.3181 19.4444 12 19.4444Z" fill="black"/>
</svg>
